<mxfile host="app.diagrams.net" modified="2023-12-12T15:13:45.414Z" agent="Mozilla/5.0 (Windows NT 10.0; Win64; x64) AppleWebKit/537.36 (KHTML, like Gecko) Chrome/120.0.0.0 Safari/537.36" etag="TrsTEoYc0rTX_RNUrODe" version="22.1.7" type="device">
  <diagram name="1 oldal" id="_7FSBFB3mM921lwTV8Tx">
    <mxGraphModel dx="6845" dy="2950" grid="0" gridSize="10" guides="1" tooltips="1" connect="1" arrows="1" fold="1" page="0" pageScale="1" pageWidth="827" pageHeight="1169" background="#FFFFFF" math="0" shadow="0">
      <root>
        <mxCell id="0" />
        <mxCell id="1" parent="0" />
        <mxCell id="w5deMiwAZv-tz3CA59m--1" value="Szalonok_VFX06G" style="ellipse;whiteSpace=wrap;html=1;" parent="1" vertex="1">
          <mxGeometry x="877.5" y="-20" width="240" height="130" as="geometry" />
        </mxCell>
        <mxCell id="w5deMiwAZv-tz3CA59m--2" value="Karbantartó_cég" style="ellipse;shape=doubleEllipse;margin=3;whiteSpace=wrap;html=1;align=center;" parent="1" vertex="1">
          <mxGeometry x="-1400" y="280" width="140" height="82.5" as="geometry" />
        </mxCell>
        <mxCell id="w5deMiwAZv-tz3CA59m--3" value="ID" style="shape=rhombus;perimeter=rhombusPerimeter;whiteSpace=wrap;html=1;align=center;" parent="1" vertex="1">
          <mxGeometry x="-1760" y="460" width="80" height="77.5" as="geometry" />
        </mxCell>
        <mxCell id="w5deMiwAZv-tz3CA59m--6" value="Telefonszám" style="ellipse;whiteSpace=wrap;html=1;align=center;" parent="1" vertex="1">
          <mxGeometry x="-1440" y="618.75" width="100" height="40" as="geometry" />
        </mxCell>
        <mxCell id="w5deMiwAZv-tz3CA59m--7" value="Kapcsolattartó" style="ellipse;whiteSpace=wrap;html=1;align=center;" parent="1" vertex="1">
          <mxGeometry x="-1380" y="494.38" width="100" height="40" as="geometry" />
        </mxCell>
        <mxCell id="w5deMiwAZv-tz3CA59m--8" value="Cég" style="ellipse;whiteSpace=wrap;html=1;align=center;" parent="1" vertex="1">
          <mxGeometry x="-1580" y="482.5" width="100" height="40" as="geometry" />
        </mxCell>
        <mxCell id="w5deMiwAZv-tz3CA59m--9" value="Név" style="ellipse;whiteSpace=wrap;html=1;align=center;" parent="1" vertex="1">
          <mxGeometry x="-1330" y="621.25" width="100" height="40" as="geometry" />
        </mxCell>
        <mxCell id="w5deMiwAZv-tz3CA59m--11" value="Telephely" style="ellipse;whiteSpace=wrap;html=1;align=center;" parent="1" vertex="1">
          <mxGeometry x="-1030" y="478.75" width="100" height="40" as="geometry" />
        </mxCell>
        <mxCell id="w5deMiwAZv-tz3CA59m--12" value="Elérhetőség" style="ellipse;whiteSpace=wrap;html=1;align=center;" parent="1" vertex="1">
          <mxGeometry x="160" y="485.01" width="100" height="40" as="geometry" />
        </mxCell>
        <mxCell id="w5deMiwAZv-tz3CA59m--14" value="Házszám" style="ellipse;whiteSpace=wrap;html=1;align=center;" parent="1" vertex="1">
          <mxGeometry x="-870" y="626.25" width="100" height="40" as="geometry" />
        </mxCell>
        <mxCell id="w5deMiwAZv-tz3CA59m--15" value="Utca" style="ellipse;whiteSpace=wrap;html=1;align=center;" parent="1" vertex="1">
          <mxGeometry x="-980" y="626.25" width="100" height="40" as="geometry" />
        </mxCell>
        <mxCell id="w5deMiwAZv-tz3CA59m--16" value="Irányítószám" style="ellipse;whiteSpace=wrap;html=1;align=center;" parent="1" vertex="1">
          <mxGeometry x="-1090" y="623.74" width="100" height="40" as="geometry" />
        </mxCell>
        <mxCell id="w5deMiwAZv-tz3CA59m--17" value="Város" style="ellipse;whiteSpace=wrap;html=1;align=center;" parent="1" vertex="1">
          <mxGeometry x="-1200" y="623.74" width="100" height="40" as="geometry" />
        </mxCell>
        <mxCell id="w5deMiwAZv-tz3CA59m--18" value="" style="rounded=0;whiteSpace=wrap;html=1;direction=south;" parent="1" vertex="1">
          <mxGeometry x="-1547.5" y="596.88" width="35" height="70" as="geometry" />
        </mxCell>
        <mxCell id="w5deMiwAZv-tz3CA59m--20" value="" style="endArrow=none;html=1;rounded=0;entryX=0.5;entryY=1;entryDx=0;entryDy=0;" parent="1" source="w5deMiwAZv-tz3CA59m--18" target="w5deMiwAZv-tz3CA59m--8" edge="1">
          <mxGeometry relative="1" as="geometry">
            <mxPoint x="-1520" y="542.5" as="sourcePoint" />
            <mxPoint x="-1690" y="572.5" as="targetPoint" />
          </mxGeometry>
        </mxCell>
        <mxCell id="w5deMiwAZv-tz3CA59m--21" value="" style="endArrow=none;html=1;rounded=0;entryX=0;entryY=0.5;entryDx=0;entryDy=0;exitX=0.5;exitY=0;exitDx=0;exitDy=0;" parent="1" source="w5deMiwAZv-tz3CA59m--2" target="w5deMiwAZv-tz3CA59m--1" edge="1">
          <mxGeometry relative="1" as="geometry">
            <mxPoint x="450" y="300" as="sourcePoint" />
            <mxPoint x="960" y="60" as="targetPoint" />
            <Array as="points" />
          </mxGeometry>
        </mxCell>
        <mxCell id="w5deMiwAZv-tz3CA59m--22" value="" style="endArrow=none;html=1;rounded=0;exitX=0.5;exitY=0;exitDx=0;exitDy=0;entryX=0;entryY=0.5;entryDx=0;entryDy=0;" parent="1" source="w5deMiwAZv-tz3CA59m--3" target="w5deMiwAZv-tz3CA59m--2" edge="1">
          <mxGeometry relative="1" as="geometry">
            <mxPoint x="-1160" y="382.5" as="sourcePoint" />
            <mxPoint x="-1000" y="382.5" as="targetPoint" />
          </mxGeometry>
        </mxCell>
        <mxCell id="w5deMiwAZv-tz3CA59m--23" value="" style="endArrow=none;html=1;rounded=0;exitX=0;exitY=1;exitDx=0;exitDy=0;entryX=0.5;entryY=0;entryDx=0;entryDy=0;" parent="1" source="w5deMiwAZv-tz3CA59m--2" target="w5deMiwAZv-tz3CA59m--8" edge="1">
          <mxGeometry relative="1" as="geometry">
            <mxPoint x="-1160" y="382.5" as="sourcePoint" />
            <mxPoint x="-1000" y="382.5" as="targetPoint" />
          </mxGeometry>
        </mxCell>
        <mxCell id="w5deMiwAZv-tz3CA59m--24" value="" style="endArrow=none;html=1;rounded=0;entryX=0.5;entryY=0;entryDx=0;entryDy=0;exitX=0.5;exitY=1;exitDx=0;exitDy=0;" parent="1" target="w5deMiwAZv-tz3CA59m--7" edge="1" source="w5deMiwAZv-tz3CA59m--2">
          <mxGeometry relative="1" as="geometry">
            <mxPoint x="-1360" y="360" as="sourcePoint" />
            <mxPoint x="-1000" y="382.5" as="targetPoint" />
          </mxGeometry>
        </mxCell>
        <mxCell id="w5deMiwAZv-tz3CA59m--25" value="" style="endArrow=none;html=1;rounded=0;entryX=0.5;entryY=0;entryDx=0;entryDy=0;" parent="1" target="w5deMiwAZv-tz3CA59m--11" edge="1">
          <mxGeometry relative="1" as="geometry">
            <mxPoint x="-1270" y="340" as="sourcePoint" />
            <mxPoint x="-1000" y="382.5" as="targetPoint" />
          </mxGeometry>
        </mxCell>
        <mxCell id="w5deMiwAZv-tz3CA59m--26" value="" style="endArrow=none;html=1;rounded=0;exitX=0.313;exitY=0.967;exitDx=0;exitDy=0;entryX=0.5;entryY=0;entryDx=0;entryDy=0;exitPerimeter=0;" parent="1" source="w5deMiwAZv-tz3CA59m--7" target="w5deMiwAZv-tz3CA59m--6" edge="1">
          <mxGeometry relative="1" as="geometry">
            <mxPoint x="-1160" y="382.5" as="sourcePoint" />
            <mxPoint x="-1000" y="382.5" as="targetPoint" />
          </mxGeometry>
        </mxCell>
        <mxCell id="w5deMiwAZv-tz3CA59m--27" value="" style="endArrow=none;html=1;rounded=0;exitX=0.66;exitY=0.935;exitDx=0;exitDy=0;entryX=0.5;entryY=0;entryDx=0;entryDy=0;exitPerimeter=0;" parent="1" source="w5deMiwAZv-tz3CA59m--7" target="w5deMiwAZv-tz3CA59m--9" edge="1">
          <mxGeometry relative="1" as="geometry">
            <mxPoint x="-1160" y="382.5" as="sourcePoint" />
            <mxPoint x="-1000" y="382.5" as="targetPoint" />
          </mxGeometry>
        </mxCell>
        <mxCell id="w5deMiwAZv-tz3CA59m--28" value="" style="endArrow=none;html=1;rounded=0;entryX=0;entryY=0.5;entryDx=0;entryDy=0;exitX=0.5;exitY=0;exitDx=0;exitDy=0;" parent="1" source="w5deMiwAZv-tz3CA59m--17" target="w5deMiwAZv-tz3CA59m--11" edge="1">
          <mxGeometry relative="1" as="geometry">
            <mxPoint x="-1160" y="382.5" as="sourcePoint" />
            <mxPoint x="-1000" y="382.5" as="targetPoint" />
          </mxGeometry>
        </mxCell>
        <mxCell id="w5deMiwAZv-tz3CA59m--29" value="" style="endArrow=none;html=1;rounded=0;entryX=0;entryY=1;entryDx=0;entryDy=0;exitX=0.5;exitY=0;exitDx=0;exitDy=0;" parent="1" source="w5deMiwAZv-tz3CA59m--16" target="w5deMiwAZv-tz3CA59m--11" edge="1">
          <mxGeometry relative="1" as="geometry">
            <mxPoint x="-1160" y="382.5" as="sourcePoint" />
            <mxPoint x="-1000" y="382.5" as="targetPoint" />
          </mxGeometry>
        </mxCell>
        <mxCell id="w5deMiwAZv-tz3CA59m--30" value="" style="endArrow=none;html=1;rounded=0;entryX=1;entryY=1;entryDx=0;entryDy=0;exitX=0.5;exitY=0;exitDx=0;exitDy=0;" parent="1" source="w5deMiwAZv-tz3CA59m--15" target="w5deMiwAZv-tz3CA59m--11" edge="1">
          <mxGeometry relative="1" as="geometry">
            <mxPoint x="-1160" y="382.5" as="sourcePoint" />
            <mxPoint x="-1000" y="382.5" as="targetPoint" />
          </mxGeometry>
        </mxCell>
        <mxCell id="w5deMiwAZv-tz3CA59m--31" value="" style="endArrow=none;html=1;rounded=0;entryX=1;entryY=0.5;entryDx=0;entryDy=0;exitX=0.5;exitY=0;exitDx=0;exitDy=0;" parent="1" source="w5deMiwAZv-tz3CA59m--14" target="w5deMiwAZv-tz3CA59m--11" edge="1">
          <mxGeometry relative="1" as="geometry">
            <mxPoint x="-1160" y="382.5" as="sourcePoint" />
            <mxPoint x="-1000" y="382.5" as="targetPoint" />
          </mxGeometry>
        </mxCell>
        <mxCell id="w5deMiwAZv-tz3CA59m--37" value="Cím" style="ellipse;whiteSpace=wrap;html=1;align=center;" parent="1" vertex="1">
          <mxGeometry x="-190" y="483.13" width="100" height="38.75" as="geometry" />
        </mxCell>
        <mxCell id="w5deMiwAZv-tz3CA59m--38" value="Neve" style="ellipse;whiteSpace=wrap;html=1;align=center;" parent="1" vertex="1">
          <mxGeometry x="-410" y="479.99" width="100" height="40" as="geometry" />
        </mxCell>
        <mxCell id="w5deMiwAZv-tz3CA59m--40" value="Főnök" style="ellipse;whiteSpace=wrap;html=1;align=center;" parent="1" vertex="1">
          <mxGeometry x="-530" y="478.75" width="100" height="40" as="geometry" />
        </mxCell>
        <mxCell id="w5deMiwAZv-tz3CA59m--43" value="Szalonok" style="ellipse;shape=doubleEllipse;margin=3;whiteSpace=wrap;html=1;align=center;" parent="1" vertex="1">
          <mxGeometry x="-210" y="280" width="140" height="88.13" as="geometry" />
        </mxCell>
        <mxCell id="w5deMiwAZv-tz3CA59m--44" value="ID" style="shape=rhombus;perimeter=rhombusPerimeter;whiteSpace=wrap;html=1;align=center;" parent="1" vertex="1">
          <mxGeometry x="-620" y="463.13" width="70" height="70" as="geometry" />
        </mxCell>
        <mxCell id="w5deMiwAZv-tz3CA59m--46" style="edgeStyle=orthogonalEdgeStyle;rounded=0;orthogonalLoop=1;jettySize=auto;html=1;exitX=0.5;exitY=1;exitDx=0;exitDy=0;" parent="1" source="w5deMiwAZv-tz3CA59m--40" target="w5deMiwAZv-tz3CA59m--40" edge="1">
          <mxGeometry relative="1" as="geometry" />
        </mxCell>
        <mxCell id="w5deMiwAZv-tz3CA59m--49" value="" style="rounded=0;whiteSpace=wrap;html=1;direction=south;" parent="1" vertex="1">
          <mxGeometry x="-500" y="581.88" width="40" height="80" as="geometry" />
        </mxCell>
        <mxCell id="w5deMiwAZv-tz3CA59m--50" value="" style="rounded=0;whiteSpace=wrap;html=1;direction=south;" parent="1" vertex="1">
          <mxGeometry x="-380" y="586.88" width="40" height="75" as="geometry" />
        </mxCell>
        <mxCell id="w5deMiwAZv-tz3CA59m--54" value="" style="endArrow=none;html=1;rounded=0;entryX=0.5;entryY=1;entryDx=0;entryDy=0;exitX=0;exitY=0.5;exitDx=0;exitDy=0;" parent="1" source="w5deMiwAZv-tz3CA59m--50" target="w5deMiwAZv-tz3CA59m--38" edge="1">
          <mxGeometry relative="1" as="geometry">
            <mxPoint x="-1080" y="442.5" as="sourcePoint" />
            <mxPoint x="-920" y="442.5" as="targetPoint" />
          </mxGeometry>
        </mxCell>
        <mxCell id="w5deMiwAZv-tz3CA59m--59" value="Facebook oldal" style="ellipse;whiteSpace=wrap;html=1;align=center;" parent="1" vertex="1">
          <mxGeometry x="280" y="618.75" width="100" height="40" as="geometry" />
        </mxCell>
        <mxCell id="w5deMiwAZv-tz3CA59m--60" value="E-mail cím" style="ellipse;whiteSpace=wrap;html=1;align=center;" parent="1" vertex="1">
          <mxGeometry x="160" y="617.5" width="100" height="40" as="geometry" />
        </mxCell>
        <mxCell id="w5deMiwAZv-tz3CA59m--61" value="Telefonszám" style="ellipse;whiteSpace=wrap;html=1;align=center;" parent="1" vertex="1">
          <mxGeometry x="40" y="616.88" width="100" height="40" as="geometry" />
        </mxCell>
        <mxCell id="w5deMiwAZv-tz3CA59m--62" value="Utca, házszám" style="ellipse;whiteSpace=wrap;html=1;align=center;" parent="1" vertex="1">
          <mxGeometry x="-80" y="616.88" width="90" height="40" as="geometry" />
        </mxCell>
        <mxCell id="w5deMiwAZv-tz3CA59m--63" value="Város" style="ellipse;whiteSpace=wrap;html=1;align=center;" parent="1" vertex="1">
          <mxGeometry x="-190" y="617.5" width="100" height="40" as="geometry" />
        </mxCell>
        <mxCell id="w5deMiwAZv-tz3CA59m--64" value="Irányítószám" style="ellipse;whiteSpace=wrap;html=1;align=center;" parent="1" vertex="1">
          <mxGeometry x="-300" y="616.88" width="100" height="40" as="geometry" />
        </mxCell>
        <mxCell id="w5deMiwAZv-tz3CA59m--67" value="" style="endArrow=none;html=1;rounded=0;exitX=0.5;exitY=0;exitDx=0;exitDy=0;" parent="1" source="w5deMiwAZv-tz3CA59m--43" edge="1">
          <mxGeometry relative="1" as="geometry">
            <mxPoint x="-30" y="450" as="sourcePoint" />
            <mxPoint x="910" y="90" as="targetPoint" />
          </mxGeometry>
        </mxCell>
        <mxCell id="w5deMiwAZv-tz3CA59m--68" value="" style="endArrow=none;html=1;rounded=0;entryX=0.5;entryY=0;entryDx=0;entryDy=0;exitX=0;exitY=0.5;exitDx=0;exitDy=0;" parent="1" source="w5deMiwAZv-tz3CA59m--43" target="w5deMiwAZv-tz3CA59m--44" edge="1">
          <mxGeometry relative="1" as="geometry">
            <mxPoint x="-320" y="300" as="sourcePoint" />
            <mxPoint x="190" y="452.5" as="targetPoint" />
          </mxGeometry>
        </mxCell>
        <mxCell id="w5deMiwAZv-tz3CA59m--69" value="" style="endArrow=none;html=1;rounded=0;entryX=0.5;entryY=0;entryDx=0;entryDy=0;exitX=0.056;exitY=0.72;exitDx=0;exitDy=0;exitPerimeter=0;" parent="1" source="w5deMiwAZv-tz3CA59m--43" target="w5deMiwAZv-tz3CA59m--40" edge="1">
          <mxGeometry relative="1" as="geometry">
            <mxPoint x="-300" y="350" as="sourcePoint" />
            <mxPoint x="190" y="452.5" as="targetPoint" />
          </mxGeometry>
        </mxCell>
        <mxCell id="w5deMiwAZv-tz3CA59m--71" value="" style="endArrow=none;html=1;rounded=0;entryX=0.5;entryY=0;entryDx=0;entryDy=0;exitX=0.5;exitY=1;exitDx=0;exitDy=0;" parent="1" target="w5deMiwAZv-tz3CA59m--37" edge="1" source="w5deMiwAZv-tz3CA59m--43">
          <mxGeometry relative="1" as="geometry">
            <mxPoint x="-110" y="370" as="sourcePoint" />
            <mxPoint x="190" y="452.5" as="targetPoint" />
          </mxGeometry>
        </mxCell>
        <mxCell id="w5deMiwAZv-tz3CA59m--72" value="" style="endArrow=none;html=1;rounded=0;exitX=1;exitY=1;exitDx=0;exitDy=0;entryX=0.5;entryY=0;entryDx=0;entryDy=0;" parent="1" source="w5deMiwAZv-tz3CA59m--43" target="w5deMiwAZv-tz3CA59m--12" edge="1">
          <mxGeometry relative="1" as="geometry">
            <mxPoint x="-120.0000000000282" y="353.75" as="sourcePoint" />
            <mxPoint x="180" y="428.75" as="targetPoint" />
          </mxGeometry>
        </mxCell>
        <mxCell id="w5deMiwAZv-tz3CA59m--73" value="" style="endArrow=none;html=1;rounded=0;entryX=0.5;entryY=0;entryDx=0;entryDy=0;exitX=0;exitY=1;exitDx=0;exitDy=0;" parent="1" source="w5deMiwAZv-tz3CA59m--43" target="w5deMiwAZv-tz3CA59m--38" edge="1">
          <mxGeometry relative="1" as="geometry">
            <mxPoint x="-240" y="370" as="sourcePoint" />
            <mxPoint x="190" y="452.5" as="targetPoint" />
          </mxGeometry>
        </mxCell>
        <mxCell id="w5deMiwAZv-tz3CA59m--74" value="" style="endArrow=none;html=1;rounded=0;entryX=0;entryY=1;entryDx=0;entryDy=0;exitX=0.5;exitY=0;exitDx=0;exitDy=0;" parent="1" source="w5deMiwAZv-tz3CA59m--64" target="w5deMiwAZv-tz3CA59m--37" edge="1">
          <mxGeometry relative="1" as="geometry">
            <mxPoint x="30" y="452.5" as="sourcePoint" />
            <mxPoint x="190" y="452.5" as="targetPoint" />
          </mxGeometry>
        </mxCell>
        <mxCell id="w5deMiwAZv-tz3CA59m--75" value="" style="endArrow=none;html=1;rounded=0;exitX=0.5;exitY=1;exitDx=0;exitDy=0;" parent="1" source="w5deMiwAZv-tz3CA59m--37" target="w5deMiwAZv-tz3CA59m--63" edge="1">
          <mxGeometry relative="1" as="geometry">
            <mxPoint x="30" y="452.5" as="sourcePoint" />
            <mxPoint x="190" y="452.5" as="targetPoint" />
          </mxGeometry>
        </mxCell>
        <mxCell id="w5deMiwAZv-tz3CA59m--77" value="" style="endArrow=none;html=1;rounded=0;entryX=0;entryY=0.5;entryDx=0;entryDy=0;exitX=0.5;exitY=0;exitDx=0;exitDy=0;" parent="1" source="w5deMiwAZv-tz3CA59m--61" target="w5deMiwAZv-tz3CA59m--12" edge="1">
          <mxGeometry relative="1" as="geometry">
            <mxPoint x="30" y="452.5" as="sourcePoint" />
            <mxPoint x="190" y="452.5" as="targetPoint" />
          </mxGeometry>
        </mxCell>
        <mxCell id="w5deMiwAZv-tz3CA59m--78" value="" style="endArrow=none;html=1;rounded=0;entryX=0.5;entryY=1;entryDx=0;entryDy=0;exitX=0.5;exitY=0;exitDx=0;exitDy=0;" parent="1" source="w5deMiwAZv-tz3CA59m--60" target="w5deMiwAZv-tz3CA59m--12" edge="1">
          <mxGeometry relative="1" as="geometry">
            <mxPoint x="30" y="452.5" as="sourcePoint" />
            <mxPoint x="190" y="452.5" as="targetPoint" />
          </mxGeometry>
        </mxCell>
        <mxCell id="w5deMiwAZv-tz3CA59m--79" value="" style="endArrow=none;html=1;rounded=0;entryX=1;entryY=0.5;entryDx=0;entryDy=0;exitX=0.5;exitY=0;exitDx=0;exitDy=0;" parent="1" source="w5deMiwAZv-tz3CA59m--59" target="w5deMiwAZv-tz3CA59m--12" edge="1">
          <mxGeometry relative="1" as="geometry">
            <mxPoint x="30" y="452.5" as="sourcePoint" />
            <mxPoint x="190" y="452.5" as="targetPoint" />
          </mxGeometry>
        </mxCell>
        <mxCell id="w5deMiwAZv-tz3CA59m--116" value="" style="endArrow=none;html=1;rounded=0;entryX=0.5;entryY=1;entryDx=0;entryDy=0;exitX=0;exitY=0.5;exitDx=0;exitDy=0;" parent="1" source="w5deMiwAZv-tz3CA59m--49" target="w5deMiwAZv-tz3CA59m--40" edge="1">
          <mxGeometry relative="1" as="geometry">
            <mxPoint x="-860" y="672.5" as="sourcePoint" />
            <mxPoint x="-700" y="672.5" as="targetPoint" />
          </mxGeometry>
        </mxCell>
        <mxCell id="w5deMiwAZv-tz3CA59m--118" value="ID" style="shape=rhombus;perimeter=rhombusPerimeter;whiteSpace=wrap;html=1;align=center;" parent="1" vertex="1">
          <mxGeometry x="790" y="459.38" width="70" height="75" as="geometry" />
        </mxCell>
        <mxCell id="w5deMiwAZv-tz3CA59m--119" value="Szolgáltatások" style="ellipse;shape=doubleEllipse;margin=3;whiteSpace=wrap;html=1;align=center;" parent="1" vertex="1">
          <mxGeometry x="925" y="280" width="145" height="96.25" as="geometry" />
        </mxCell>
        <mxCell id="w5deMiwAZv-tz3CA59m--121" value="Időtartam" style="ellipse;whiteSpace=wrap;html=1;align=center;" parent="1" vertex="1">
          <mxGeometry x="1117.5" y="476.88" width="100" height="40" as="geometry" />
        </mxCell>
        <mxCell id="w5deMiwAZv-tz3CA59m--122" value="Ár" style="ellipse;whiteSpace=wrap;html=1;align=center;" parent="1" vertex="1">
          <mxGeometry x="1000" y="478.75" width="100" height="40" as="geometry" />
        </mxCell>
        <mxCell id="w5deMiwAZv-tz3CA59m--123" value="Típus" style="ellipse;whiteSpace=wrap;html=1;align=center;" parent="1" vertex="1">
          <mxGeometry x="890" y="478.75" width="100" height="40" as="geometry" />
        </mxCell>
        <mxCell id="w5deMiwAZv-tz3CA59m--124" value="" style="endArrow=none;html=1;rounded=0;exitX=0.5;exitY=1;exitDx=0;exitDy=0;entryX=0.5;entryY=0;entryDx=0;entryDy=0;" parent="1" source="w5deMiwAZv-tz3CA59m--1" target="w5deMiwAZv-tz3CA59m--119" edge="1">
          <mxGeometry relative="1" as="geometry">
            <mxPoint x="1290" y="430" as="sourcePoint" />
            <mxPoint x="1500" y="330" as="targetPoint" />
          </mxGeometry>
        </mxCell>
        <mxCell id="w5deMiwAZv-tz3CA59m--125" value="" style="endArrow=none;html=1;rounded=0;entryX=0;entryY=0.5;entryDx=0;entryDy=0;exitX=0.5;exitY=0;exitDx=0;exitDy=0;" parent="1" source="w5deMiwAZv-tz3CA59m--118" target="w5deMiwAZv-tz3CA59m--119" edge="1">
          <mxGeometry relative="1" as="geometry">
            <mxPoint x="800" y="376.25" as="sourcePoint" />
            <mxPoint x="625" y="406.25" as="targetPoint" />
          </mxGeometry>
        </mxCell>
        <mxCell id="w5deMiwAZv-tz3CA59m--126" value="" style="endArrow=none;html=1;rounded=0;entryX=0;entryY=1;entryDx=0;entryDy=0;exitX=0.5;exitY=0;exitDx=0;exitDy=0;" parent="1" source="w5deMiwAZv-tz3CA59m--123" target="w5deMiwAZv-tz3CA59m--119" edge="1">
          <mxGeometry relative="1" as="geometry">
            <mxPoint x="480" y="476.25" as="sourcePoint" />
            <mxPoint x="640" y="476.25" as="targetPoint" />
          </mxGeometry>
        </mxCell>
        <mxCell id="w5deMiwAZv-tz3CA59m--127" value="" style="endArrow=none;html=1;rounded=0;exitX=0.5;exitY=0;exitDx=0;exitDy=0;entryX=1;entryY=1;entryDx=0;entryDy=0;" parent="1" source="w5deMiwAZv-tz3CA59m--122" edge="1" target="w5deMiwAZv-tz3CA59m--119">
          <mxGeometry relative="1" as="geometry">
            <mxPoint x="480" y="476.25" as="sourcePoint" />
            <mxPoint x="1020" y="370" as="targetPoint" />
          </mxGeometry>
        </mxCell>
        <mxCell id="w5deMiwAZv-tz3CA59m--128" value="" style="endArrow=none;html=1;rounded=0;entryX=1;entryY=0.5;entryDx=0;entryDy=0;exitX=0.5;exitY=0;exitDx=0;exitDy=0;" parent="1" source="w5deMiwAZv-tz3CA59m--121" target="w5deMiwAZv-tz3CA59m--119" edge="1">
          <mxGeometry relative="1" as="geometry">
            <mxPoint x="480" y="476.25" as="sourcePoint" />
            <mxPoint x="640" y="476.25" as="targetPoint" />
            <Array as="points" />
          </mxGeometry>
        </mxCell>
        <mxCell id="w5deMiwAZv-tz3CA59m--129" value="Vendégek" style="ellipse;shape=doubleEllipse;margin=3;whiteSpace=wrap;html=1;align=center;" parent="1" vertex="1">
          <mxGeometry x="1625" y="279.06" width="130" height="90" as="geometry" />
        </mxCell>
        <mxCell id="w5deMiwAZv-tz3CA59m--130" value="ID" style="shape=rhombus;perimeter=rhombusPerimeter;whiteSpace=wrap;html=1;align=center;" parent="1" vertex="1">
          <mxGeometry x="1270" y="455.01" width="70" height="70" as="geometry" />
        </mxCell>
        <mxCell id="w5deMiwAZv-tz3CA59m--131" value="E-mail cím" style="ellipse;whiteSpace=wrap;html=1;align=center;" parent="1" vertex="1">
          <mxGeometry x="1500" y="471.87" width="100" height="40" as="geometry" />
        </mxCell>
        <mxCell id="w5deMiwAZv-tz3CA59m--132" value="Név" style="ellipse;whiteSpace=wrap;html=1;align=center;" parent="1" vertex="1">
          <mxGeometry x="1760" y="468.12" width="100" height="43.75" as="geometry" />
        </mxCell>
        <mxCell id="w5deMiwAZv-tz3CA59m--133" value="Telefonszám" style="ellipse;whiteSpace=wrap;html=1;align=center;" parent="1" vertex="1">
          <mxGeometry x="1370" y="471.87" width="100" height="40" as="geometry" />
        </mxCell>
        <mxCell id="w5deMiwAZv-tz3CA59m--135" value="Fizetett összeg" style="ellipse;whiteSpace=wrap;html=1;align=center;dashed=1;" parent="1" vertex="1">
          <mxGeometry x="1640" y="471.87" width="100" height="40" as="geometry" />
        </mxCell>
        <mxCell id="w5deMiwAZv-tz3CA59m--137" value="" style="endArrow=none;html=1;rounded=0;entryX=0;entryY=0.5;entryDx=0;entryDy=0;exitX=0.5;exitY=0;exitDx=0;exitDy=0;" parent="1" source="w5deMiwAZv-tz3CA59m--130" target="w5deMiwAZv-tz3CA59m--129" edge="1">
          <mxGeometry relative="1" as="geometry">
            <mxPoint x="1310" y="488.75" as="sourcePoint" />
            <mxPoint x="1470" y="488.75" as="targetPoint" />
          </mxGeometry>
        </mxCell>
        <mxCell id="w5deMiwAZv-tz3CA59m--138" value="" style="endArrow=none;html=1;rounded=0;exitX=0.5;exitY=0;exitDx=0;exitDy=0;entryX=0.019;entryY=0.678;entryDx=0;entryDy=0;entryPerimeter=0;" parent="1" source="w5deMiwAZv-tz3CA59m--133" target="w5deMiwAZv-tz3CA59m--129" edge="1">
          <mxGeometry relative="1" as="geometry">
            <mxPoint x="1310" y="488.75" as="sourcePoint" />
            <mxPoint x="1590" y="330" as="targetPoint" />
          </mxGeometry>
        </mxCell>
        <mxCell id="w5deMiwAZv-tz3CA59m--139" value="" style="endArrow=none;html=1;rounded=0;exitX=0.5;exitY=0;exitDx=0;exitDy=0;entryX=0;entryY=1;entryDx=0;entryDy=0;" parent="1" source="w5deMiwAZv-tz3CA59m--131" target="w5deMiwAZv-tz3CA59m--129" edge="1">
          <mxGeometry relative="1" as="geometry">
            <mxPoint x="1310" y="488.75" as="sourcePoint" />
            <mxPoint x="1660" y="380" as="targetPoint" />
          </mxGeometry>
        </mxCell>
        <mxCell id="w5deMiwAZv-tz3CA59m--140" value="" style="endArrow=none;html=1;rounded=0;entryX=0.5;entryY=1;entryDx=0;entryDy=0;exitX=0.5;exitY=0;exitDx=0;exitDy=0;" parent="1" source="w5deMiwAZv-tz3CA59m--135" target="w5deMiwAZv-tz3CA59m--129" edge="1">
          <mxGeometry relative="1" as="geometry">
            <mxPoint x="1310" y="488.75" as="sourcePoint" />
            <mxPoint x="1470" y="488.75" as="targetPoint" />
          </mxGeometry>
        </mxCell>
        <mxCell id="w5deMiwAZv-tz3CA59m--141" value="" style="endArrow=none;html=1;rounded=0;entryX=1;entryY=1;entryDx=0;entryDy=0;exitX=0.5;exitY=0;exitDx=0;exitDy=0;" parent="1" source="w5deMiwAZv-tz3CA59m--132" target="w5deMiwAZv-tz3CA59m--129" edge="1">
          <mxGeometry relative="1" as="geometry">
            <mxPoint x="1310" y="488.75" as="sourcePoint" />
            <mxPoint x="1470" y="488.75" as="targetPoint" />
          </mxGeometry>
        </mxCell>
        <mxCell id="w5deMiwAZv-tz3CA59m--142" value="" style="endArrow=none;html=1;rounded=0;exitX=1;exitY=1;exitDx=0;exitDy=0;entryX=0.5;entryY=0;entryDx=0;entryDy=0;" parent="1" source="w5deMiwAZv-tz3CA59m--1" target="w5deMiwAZv-tz3CA59m--129" edge="1">
          <mxGeometry relative="1" as="geometry">
            <mxPoint x="1570" y="430" as="sourcePoint" />
            <mxPoint x="1730" y="430" as="targetPoint" />
            <Array as="points" />
          </mxGeometry>
        </mxCell>
        <mxCell id="w5deMiwAZv-tz3CA59m--143" value="" style="rounded=0;whiteSpace=wrap;html=1;direction=south;" parent="1" vertex="1">
          <mxGeometry x="1785" y="600.62" width="50" height="86.25" as="geometry" />
        </mxCell>
        <mxCell id="w5deMiwAZv-tz3CA59m--144" value="" style="rounded=0;whiteSpace=wrap;html=1;direction=south;" parent="1" vertex="1">
          <mxGeometry x="1665" y="596.25" width="50" height="85" as="geometry" />
        </mxCell>
        <mxCell id="w5deMiwAZv-tz3CA59m--145" value="" style="rounded=0;whiteSpace=wrap;html=1;direction=south;" parent="1" vertex="1">
          <mxGeometry x="1525" y="595.63" width="50" height="82.5" as="geometry" />
        </mxCell>
        <mxCell id="w5deMiwAZv-tz3CA59m--146" value="" style="rounded=0;whiteSpace=wrap;html=1;direction=south;" parent="1" vertex="1">
          <mxGeometry x="1395" y="596.25" width="50" height="82.5" as="geometry" />
        </mxCell>
        <mxCell id="w5deMiwAZv-tz3CA59m--147" value="" style="rounded=0;whiteSpace=wrap;html=1;rotation=90;" parent="1" vertex="1">
          <mxGeometry x="1132.5" y="618.75" width="75" height="50" as="geometry" />
        </mxCell>
        <mxCell id="w5deMiwAZv-tz3CA59m--148" value="" style="rounded=0;whiteSpace=wrap;html=1;rotation=90;" parent="1" vertex="1">
          <mxGeometry x="1012.5000000000001" y="621.25" width="75" height="46.25" as="geometry" />
        </mxCell>
        <mxCell id="w5deMiwAZv-tz3CA59m--149" value="" style="rounded=0;whiteSpace=wrap;html=1;rotation=90;" parent="1" vertex="1">
          <mxGeometry x="905" y="621.25" width="70" height="45" as="geometry" />
        </mxCell>
        <mxCell id="w5deMiwAZv-tz3CA59m--150" value="" style="endArrow=none;html=1;rounded=0;entryX=0.5;entryY=1;entryDx=0;entryDy=0;exitX=0;exitY=0.5;exitDx=0;exitDy=0;" parent="1" source="w5deMiwAZv-tz3CA59m--149" target="w5deMiwAZv-tz3CA59m--123" edge="1">
          <mxGeometry relative="1" as="geometry">
            <mxPoint x="880" y="476.25" as="sourcePoint" />
            <mxPoint x="1040" y="476.25" as="targetPoint" />
          </mxGeometry>
        </mxCell>
        <mxCell id="w5deMiwAZv-tz3CA59m--151" value="" style="endArrow=none;html=1;rounded=0;entryX=0.5;entryY=1;entryDx=0;entryDy=0;exitX=0;exitY=0.5;exitDx=0;exitDy=0;" parent="1" source="w5deMiwAZv-tz3CA59m--148" target="w5deMiwAZv-tz3CA59m--122" edge="1">
          <mxGeometry relative="1" as="geometry">
            <mxPoint x="880" y="476.25" as="sourcePoint" />
            <mxPoint x="1040" y="476.25" as="targetPoint" />
          </mxGeometry>
        </mxCell>
        <mxCell id="w5deMiwAZv-tz3CA59m--152" value="" style="endArrow=none;html=1;rounded=0;entryX=0.5;entryY=1;entryDx=0;entryDy=0;exitX=0;exitY=0.5;exitDx=0;exitDy=0;" parent="1" source="w5deMiwAZv-tz3CA59m--147" target="w5deMiwAZv-tz3CA59m--121" edge="1">
          <mxGeometry relative="1" as="geometry">
            <mxPoint x="880" y="476.25" as="sourcePoint" />
            <mxPoint x="1040" y="476.25" as="targetPoint" />
          </mxGeometry>
        </mxCell>
        <mxCell id="w5deMiwAZv-tz3CA59m--154" value="" style="endArrow=none;html=1;rounded=0;entryX=0;entryY=0.5;entryDx=0;entryDy=0;exitX=0.5;exitY=1;exitDx=0;exitDy=0;" parent="1" source="w5deMiwAZv-tz3CA59m--133" target="w5deMiwAZv-tz3CA59m--146" edge="1">
          <mxGeometry relative="1" as="geometry">
            <mxPoint x="1440" y="488.75" as="sourcePoint" />
            <mxPoint x="1600" y="488.75" as="targetPoint" />
          </mxGeometry>
        </mxCell>
        <mxCell id="w5deMiwAZv-tz3CA59m--155" value="" style="endArrow=none;html=1;rounded=0;entryX=0.5;entryY=1;entryDx=0;entryDy=0;exitX=0;exitY=0.5;exitDx=0;exitDy=0;" parent="1" source="w5deMiwAZv-tz3CA59m--145" target="w5deMiwAZv-tz3CA59m--131" edge="1">
          <mxGeometry relative="1" as="geometry">
            <mxPoint x="1440" y="488.75" as="sourcePoint" />
            <mxPoint x="1600" y="488.75" as="targetPoint" />
          </mxGeometry>
        </mxCell>
        <mxCell id="w5deMiwAZv-tz3CA59m--156" value="" style="endArrow=none;html=1;rounded=0;entryX=0.5;entryY=1;entryDx=0;entryDy=0;exitX=0;exitY=0.5;exitDx=0;exitDy=0;" parent="1" source="w5deMiwAZv-tz3CA59m--144" target="w5deMiwAZv-tz3CA59m--135" edge="1">
          <mxGeometry relative="1" as="geometry">
            <mxPoint x="1440" y="465.63" as="sourcePoint" />
            <mxPoint x="1834.999999999999" y="500.63" as="targetPoint" />
          </mxGeometry>
        </mxCell>
        <mxCell id="w5deMiwAZv-tz3CA59m--157" value="" style="endArrow=none;html=1;rounded=0;entryX=0.5;entryY=1;entryDx=0;entryDy=0;exitX=0;exitY=0.5;exitDx=0;exitDy=0;" parent="1" source="w5deMiwAZv-tz3CA59m--143" target="w5deMiwAZv-tz3CA59m--132" edge="1">
          <mxGeometry relative="1" as="geometry">
            <mxPoint x="1425" y="488.75" as="sourcePoint" />
            <mxPoint x="1585" y="488.75" as="targetPoint" />
          </mxGeometry>
        </mxCell>
        <mxCell id="aXzBlspdMr_ZlCMXfNPr-1" value="PK" style="rhombus;whiteSpace=wrap;html=1;" parent="1" vertex="1">
          <mxGeometry x="-790" y="456.88" width="70" height="77.5" as="geometry" />
        </mxCell>
        <mxCell id="k1kzykJWCA26dPc31442-3" value="" style="endArrow=none;html=1;rounded=0;entryX=0.5;entryY=0;entryDx=0;entryDy=0;exitX=1;exitY=0.5;exitDx=0;exitDy=0;" parent="1" source="w5deMiwAZv-tz3CA59m--2" target="aXzBlspdMr_ZlCMXfNPr-1" edge="1">
          <mxGeometry relative="1" as="geometry">
            <mxPoint x="-1160" y="350" as="sourcePoint" />
            <mxPoint x="-596.41" y="536.25" as="targetPoint" />
          </mxGeometry>
        </mxCell>
        <mxCell id="k1kzykJWCA26dPc31442-26" value="" style="endArrow=none;html=1;rounded=0;entryX=0.5;entryY=0;entryDx=0;entryDy=0;exitX=1;exitY=0.5;exitDx=0;exitDy=0;" parent="1" source="w5deMiwAZv-tz3CA59m--43" target="GHyV7YHDhnBLUc5X5e86-12" edge="1">
          <mxGeometry width="50" height="50" relative="1" as="geometry">
            <mxPoint x="-110" y="370" as="sourcePoint" />
            <mxPoint x="525" y="448.75" as="targetPoint" />
          </mxGeometry>
        </mxCell>
        <mxCell id="k1kzykJWCA26dPc31442-44" value="" style="endArrow=none;html=1;rounded=0;entryX=1;entryY=0.5;entryDx=0;entryDy=0;exitX=0.5;exitY=0;exitDx=0;exitDy=0;" parent="1" source="GHyV7YHDhnBLUc5X5e86-2" target="w5deMiwAZv-tz3CA59m--129" edge="1">
          <mxGeometry width="50" height="50" relative="1" as="geometry">
            <mxPoint x="2093.6900000000005" y="443.75" as="sourcePoint" />
            <mxPoint x="1735.0014459839508" y="226.2340141018508" as="targetPoint" />
          </mxGeometry>
        </mxCell>
        <mxCell id="k1kzykJWCA26dPc31442-60" value="" style="endArrow=none;dashed=1;html=1;dashPattern=1 3;strokeWidth=2;rounded=0;entryX=0.5;entryY=1;entryDx=0;entryDy=0;" parent="1" edge="1">
          <mxGeometry width="50" height="50" relative="1" as="geometry">
            <mxPoint x="1475" y="1860" as="sourcePoint" />
            <mxPoint x="1475" y="1683.75" as="targetPoint" />
          </mxGeometry>
        </mxCell>
        <mxCell id="k1kzykJWCA26dPc31442-94" value="" style="endArrow=none;dashed=1;html=1;dashPattern=1 3;strokeWidth=2;rounded=0;" parent="1" edge="1">
          <mxGeometry width="50" height="50" relative="1" as="geometry">
            <mxPoint x="-1720" y="830" as="sourcePoint" />
            <mxPoint x="420" y="830" as="targetPoint" />
          </mxGeometry>
        </mxCell>
        <mxCell id="k1kzykJWCA26dPc31442-95" value="" style="endArrow=none;dashed=1;html=1;dashPattern=1 3;strokeWidth=2;rounded=0;entryX=0.5;entryY=1;entryDx=0;entryDy=0;" parent="1" target="GHyV7YHDhnBLUc5X5e86-14" edge="1">
          <mxGeometry width="50" height="50" relative="1" as="geometry">
            <mxPoint x="420" y="830" as="sourcePoint" />
            <mxPoint x="525" y="526.25" as="targetPoint" />
          </mxGeometry>
        </mxCell>
        <mxCell id="k1kzykJWCA26dPc31442-98" value="ID" style="rhombus;whiteSpace=wrap;html=1;" parent="1" vertex="1">
          <mxGeometry x="2290" y="452.49" width="70" height="67.5" as="geometry" />
        </mxCell>
        <mxCell id="k1kzykJWCA26dPc31442-100" value="Első időpont" style="ellipse;whiteSpace=wrap;html=1;" parent="1" vertex="1">
          <mxGeometry x="2395" y="463.13" width="100" height="53.75" as="geometry" />
        </mxCell>
        <mxCell id="k1kzykJWCA26dPc31442-105" value="" style="endArrow=none;html=1;rounded=0;entryX=0;entryY=0.5;entryDx=0;entryDy=0;exitX=0.5;exitY=0;exitDx=0;exitDy=0;" parent="1" source="k1kzykJWCA26dPc31442-98" edge="1">
          <mxGeometry width="50" height="50" relative="1" as="geometry">
            <mxPoint x="2020" y="790" as="sourcePoint" />
            <mxPoint x="2370" y="328.1300000000001" as="targetPoint" />
            <Array as="points" />
          </mxGeometry>
        </mxCell>
        <mxCell id="k1kzykJWCA26dPc31442-106" value="" style="endArrow=none;html=1;rounded=0;exitX=0.5;exitY=0;exitDx=0;exitDy=0;entryX=0.5;entryY=1;entryDx=0;entryDy=0;" parent="1" source="k1kzykJWCA26dPc31442-100" target="GHyV7YHDhnBLUc5X5e86-1" edge="1">
          <mxGeometry width="50" height="50" relative="1" as="geometry">
            <mxPoint x="2020" y="790" as="sourcePoint" />
            <mxPoint x="2420" y="370" as="targetPoint" />
          </mxGeometry>
        </mxCell>
        <mxCell id="k1kzykJWCA26dPc31442-107" value="" style="endArrow=none;html=1;rounded=0;entryX=1;entryY=0.5;entryDx=0;entryDy=0;exitX=0.5;exitY=0;exitDx=0;exitDy=0;" parent="1" source="V5kUpltUsHRQvg2PIHEB-1" target="GHyV7YHDhnBLUc5X5e86-1" edge="1">
          <mxGeometry width="50" height="50" relative="1" as="geometry">
            <mxPoint x="2670" y="452.5" as="sourcePoint" />
            <mxPoint x="2480.961940777126" y="359.9498051533951" as="targetPoint" />
          </mxGeometry>
        </mxCell>
        <mxCell id="k1kzykJWCA26dPc31442-109" value="" style="endArrow=none;html=1;rounded=0;entryX=1;entryY=0.5;entryDx=0;entryDy=0;exitX=0.5;exitY=0;exitDx=0;exitDy=0;" parent="1" source="GHyV7YHDhnBLUc5X5e86-1" target="w5deMiwAZv-tz3CA59m--1" edge="1">
          <mxGeometry width="50" height="50" relative="1" as="geometry">
            <mxPoint x="2435" y="283.1300000000001" as="sourcePoint" />
            <mxPoint x="2070" y="740" as="targetPoint" />
            <Array as="points">
              <mxPoint x="1750" y="170" />
            </Array>
          </mxGeometry>
        </mxCell>
        <mxCell id="k1kzykJWCA26dPc31442-110" value="" style="rounded=0;whiteSpace=wrap;html=1;direction=south;" parent="1" vertex="1">
          <mxGeometry x="2565" y="586.88" width="50" height="92.5" as="geometry" />
        </mxCell>
        <mxCell id="k1kzykJWCA26dPc31442-111" value="" style="rounded=0;whiteSpace=wrap;html=1;direction=south;" parent="1" vertex="1">
          <mxGeometry x="2420" y="591.88" width="50" height="90" as="geometry" />
        </mxCell>
        <mxCell id="k1kzykJWCA26dPc31442-112" value="" style="endArrow=none;html=1;rounded=0;entryX=0.5;entryY=1;entryDx=0;entryDy=0;exitX=0;exitY=0.5;exitDx=0;exitDy=0;" parent="1" source="k1kzykJWCA26dPc31442-111" target="k1kzykJWCA26dPc31442-100" edge="1">
          <mxGeometry width="50" height="50" relative="1" as="geometry">
            <mxPoint x="2200" y="784.38" as="sourcePoint" />
            <mxPoint x="2250" y="734.38" as="targetPoint" />
          </mxGeometry>
        </mxCell>
        <mxCell id="k1kzykJWCA26dPc31442-113" value="" style="endArrow=none;html=1;rounded=0;entryX=0.5;entryY=1;entryDx=0;entryDy=0;exitX=0;exitY=0.5;exitDx=0;exitDy=0;" parent="1" target="V5kUpltUsHRQvg2PIHEB-1" edge="1" source="k1kzykJWCA26dPc31442-110">
          <mxGeometry width="50" height="50" relative="1" as="geometry">
            <mxPoint x="2610" y="591" as="sourcePoint" />
            <mxPoint x="2670" y="517.5" as="targetPoint" />
          </mxGeometry>
        </mxCell>
        <mxCell id="k1kzykJWCA26dPc31442-118" value="" style="endArrow=none;dashed=1;html=1;dashPattern=1 3;strokeWidth=2;rounded=0;" parent="1" edge="1">
          <mxGeometry width="50" height="50" relative="1" as="geometry">
            <mxPoint x="830" y="840" as="sourcePoint" />
            <mxPoint x="1930" y="840" as="targetPoint" />
          </mxGeometry>
        </mxCell>
        <mxCell id="k1kzykJWCA26dPc31442-124" value="" style="endArrow=none;html=1;rounded=0;entryX=1;entryY=1;entryDx=0;entryDy=0;exitX=0.5;exitY=0;exitDx=0;exitDy=0;" parent="1" source="w5deMiwAZv-tz3CA59m--62" target="w5deMiwAZv-tz3CA59m--37" edge="1">
          <mxGeometry width="50" height="50" relative="1" as="geometry">
            <mxPoint x="-790" y="460" as="sourcePoint" />
            <mxPoint x="-740" y="410" as="targetPoint" />
          </mxGeometry>
        </mxCell>
        <mxCell id="k1kzykJWCA26dPc31442-129" value="" style="endArrow=classic;html=1;rounded=0;dashed=1;entryX=0.5;entryY=1;entryDx=0;entryDy=0;" parent="1" edge="1" target="w5deMiwAZv-tz3CA59m--3">
          <mxGeometry width="50" height="50" relative="1" as="geometry">
            <mxPoint x="-1720" y="830" as="sourcePoint" />
            <mxPoint x="-1690" y="600" as="targetPoint" />
          </mxGeometry>
        </mxCell>
        <mxCell id="k1kzykJWCA26dPc31442-130" value="" style="endArrow=classic;html=1;rounded=0;dashed=1;exitX=1;exitY=0.5;exitDx=0;exitDy=0;entryX=0;entryY=0.5;entryDx=0;entryDy=0;" parent="1" source="GHyV7YHDhnBLUc5X5e86-12" edge="1" target="w5deMiwAZv-tz3CA59m--118">
          <mxGeometry width="50" height="50" relative="1" as="geometry">
            <mxPoint x="560" y="487.5" as="sourcePoint" />
            <mxPoint x="770" y="488" as="targetPoint" />
          </mxGeometry>
        </mxCell>
        <mxCell id="k1kzykJWCA26dPc31442-131" value="" style="endArrow=classic;html=1;rounded=0;dashed=1;entryX=0.5;entryY=1;entryDx=0;entryDy=0;" parent="1" target="w5deMiwAZv-tz3CA59m--118" edge="1">
          <mxGeometry width="50" height="50" relative="1" as="geometry">
            <mxPoint x="825" y="840" as="sourcePoint" />
            <mxPoint x="660" y="540" as="targetPoint" />
          </mxGeometry>
        </mxCell>
        <mxCell id="GHyV7YHDhnBLUc5X5e86-1" value="Kedvezmények" style="ellipse;shape=doubleEllipse;margin=3;whiteSpace=wrap;html=1;align=center;" parent="1" vertex="1">
          <mxGeometry x="2370" y="294.07" width="150" height="74.06" as="geometry" />
        </mxCell>
        <mxCell id="GHyV7YHDhnBLUc5X5e86-2" value="Hűségpont" style="shape=rhombus;perimeter=rhombusPerimeter;whiteSpace=wrap;html=1;align=center;" parent="1" vertex="1">
          <mxGeometry x="2000" y="451.25" width="70" height="73.75" as="geometry" />
        </mxCell>
        <mxCell id="GHyV7YHDhnBLUc5X5e86-3" value="Kért szolgáltatás" style="shape=rhombus;perimeter=rhombusPerimeter;whiteSpace=wrap;html=1;align=center;" parent="1" vertex="1">
          <mxGeometry x="1900" y="449.99" width="70" height="72.5" as="geometry" />
        </mxCell>
        <mxCell id="GHyV7YHDhnBLUc5X5e86-4" value="" style="endArrow=none;html=1;rounded=0;entryX=0.5;entryY=0;entryDx=0;entryDy=0;" parent="1" target="GHyV7YHDhnBLUc5X5e86-3" edge="1">
          <mxGeometry relative="1" as="geometry">
            <mxPoint x="1750" y="340" as="sourcePoint" />
            <mxPoint x="2020" y="510" as="targetPoint" />
          </mxGeometry>
        </mxCell>
        <mxCell id="GHyV7YHDhnBLUc5X5e86-5" value="" style="endArrow=none;dashed=1;html=1;rounded=0;entryX=1;entryY=1;entryDx=0;entryDy=0;exitX=0;exitY=1;exitDx=0;exitDy=0;" parent="1" source="GHyV7YHDhnBLUc5X5e86-3" target="GHyV7YHDhnBLUc5X5e86-3" edge="1">
          <mxGeometry width="50" height="50" relative="1" as="geometry">
            <mxPoint x="1840" y="530" as="sourcePoint" />
            <mxPoint x="1890" y="480" as="targetPoint" />
          </mxGeometry>
        </mxCell>
        <mxCell id="GHyV7YHDhnBLUc5X5e86-6" value="" style="endArrow=none;dashed=1;html=1;rounded=0;entryX=0.825;entryY=0.684;entryDx=0;entryDy=0;entryPerimeter=0;exitX=0.194;exitY=0.692;exitDx=0;exitDy=0;exitPerimeter=0;" parent="1" source="GHyV7YHDhnBLUc5X5e86-2" target="GHyV7YHDhnBLUc5X5e86-2" edge="1">
          <mxGeometry width="50" height="50" relative="1" as="geometry">
            <mxPoint x="2138" y="514" as="sourcePoint" />
            <mxPoint x="2050" y="470" as="targetPoint" />
          </mxGeometry>
        </mxCell>
        <mxCell id="GHyV7YHDhnBLUc5X5e86-7" value="" style="endArrow=none;dashed=1;html=1;rounded=0;entryX=0.5;entryY=1;entryDx=0;entryDy=0;" parent="1" target="GHyV7YHDhnBLUc5X5e86-3" edge="1">
          <mxGeometry width="50" height="50" relative="1" as="geometry">
            <mxPoint x="1935" y="840" as="sourcePoint" />
            <mxPoint x="1980" y="590" as="targetPoint" />
          </mxGeometry>
        </mxCell>
        <mxCell id="GHyV7YHDhnBLUc5X5e86-10" value="" style="endArrow=classic;html=1;rounded=0;entryX=0;entryY=0.5;entryDx=0;entryDy=0;exitX=1;exitY=0.5;exitDx=0;exitDy=0;dashed=1;" parent="1" source="GHyV7YHDhnBLUc5X5e86-2" target="k1kzykJWCA26dPc31442-98" edge="1">
          <mxGeometry width="50" height="50" relative="1" as="geometry">
            <mxPoint x="1930" y="500" as="sourcePoint" />
            <mxPoint x="1980" y="450" as="targetPoint" />
          </mxGeometry>
        </mxCell>
        <mxCell id="GHyV7YHDhnBLUc5X5e86-12" value="Kérhető Szolgáltatás" style="shape=rhombus;perimeter=rhombusPerimeter;whiteSpace=wrap;html=1;align=center;" parent="1" vertex="1">
          <mxGeometry x="490" y="451.25" width="80" height="87.5" as="geometry" />
        </mxCell>
        <mxCell id="GHyV7YHDhnBLUc5X5e86-13" value="" style="endArrow=none;dashed=1;html=1;rounded=0;exitX=0;exitY=1;exitDx=0;exitDy=0;entryX=1;entryY=1;entryDx=0;entryDy=0;" parent="1" source="GHyV7YHDhnBLUc5X5e86-12" target="GHyV7YHDhnBLUc5X5e86-12" edge="1">
          <mxGeometry width="50" height="50" relative="1" as="geometry">
            <mxPoint x="670" y="482.5" as="sourcePoint" />
            <mxPoint x="720" y="432.5" as="targetPoint" />
          </mxGeometry>
        </mxCell>
        <mxCell id="GHyV7YHDhnBLUc5X5e86-14" value="Karbantartja" style="shape=rhombus;perimeter=rhombusPerimeter;whiteSpace=wrap;html=1;align=center;" parent="1" vertex="1">
          <mxGeometry x="380" y="453.44" width="80" height="83.13" as="geometry" />
        </mxCell>
        <mxCell id="GHyV7YHDhnBLUc5X5e86-15" value="" style="endArrow=none;dashed=1;html=1;rounded=0;exitX=0;exitY=1;exitDx=0;exitDy=0;entryX=1;entryY=1;entryDx=0;entryDy=0;" parent="1" source="GHyV7YHDhnBLUc5X5e86-14" target="GHyV7YHDhnBLUc5X5e86-14" edge="1">
          <mxGeometry width="50" height="50" relative="1" as="geometry">
            <mxPoint x="550" y="477.5" as="sourcePoint" />
            <mxPoint x="600" y="427.5" as="targetPoint" />
          </mxGeometry>
        </mxCell>
        <mxCell id="GHyV7YHDhnBLUc5X5e86-16" value="" style="endArrow=none;html=1;rounded=0;exitX=0.957;exitY=0.682;exitDx=0;exitDy=0;entryX=0.5;entryY=0;entryDx=0;entryDy=0;exitPerimeter=0;" parent="1" source="w5deMiwAZv-tz3CA59m--43" target="GHyV7YHDhnBLUc5X5e86-14" edge="1">
          <mxGeometry width="50" height="50" relative="1" as="geometry">
            <mxPoint x="-60" y="350" as="sourcePoint" />
            <mxPoint x="510" y="400" as="targetPoint" />
          </mxGeometry>
        </mxCell>
        <mxCell id="V5kUpltUsHRQvg2PIHEB-1" value="Szolgáltatások" style="ellipse;shape=doubleEllipse;margin=3;whiteSpace=wrap;html=1;align=center;" vertex="1" parent="1">
          <mxGeometry x="2535" y="454.38" width="110" height="61.24" as="geometry" />
        </mxCell>
        <mxCell id="V5kUpltUsHRQvg2PIHEB-2" style="edgeStyle=orthogonalEdgeStyle;rounded=0;orthogonalLoop=1;jettySize=auto;html=1;exitX=0.5;exitY=1;exitDx=0;exitDy=0;" edge="1" parent="1" source="w5deMiwAZv-tz3CA59m--7" target="w5deMiwAZv-tz3CA59m--7">
          <mxGeometry relative="1" as="geometry" />
        </mxCell>
        <mxCell id="V5kUpltUsHRQvg2PIHEB-4" value="" style="endArrow=none;dashed=1;html=1;rounded=0;exitX=0.141;exitY=0.651;exitDx=0;exitDy=0;exitPerimeter=0;entryX=0.851;entryY=0.653;entryDx=0;entryDy=0;entryPerimeter=0;" edge="1" parent="1" source="aXzBlspdMr_ZlCMXfNPr-1" target="aXzBlspdMr_ZlCMXfNPr-1">
          <mxGeometry width="50" height="50" relative="1" as="geometry">
            <mxPoint x="-740" y="560" as="sourcePoint" />
            <mxPoint x="-690" y="510" as="targetPoint" />
          </mxGeometry>
        </mxCell>
      </root>
    </mxGraphModel>
  </diagram>
</mxfile>
